#!OML:ASF Y:\EmotionMaleHayes\Project 1\Capture day 1\Session 1\Male1.ASF
:FULLY-SPECIFIED
:DEGREES
63
root -28.2111 17.0403 1.21054 37.1068 85.3339 36.9661
lowerback 6.96183 1.91472 -4.29112
upperback 0.696081 2.22993 -0.253098
thorax -3.33641 1.17408 1.92624
lowerneck -24.9554 2.20379 2.25008
upperneck 21.3989 2.7772 -1.84124
head 11.1121 1.22527 -0.580247
rclavicle 6.95746e-016 1.2424e-014
rhumerus -31.6314 12.3982 -94.4183
rradius 24.8701
rwrist 1.21635
rhand -8.77608 -32.8753
rfingers 7.12502
rthumb 17.162 -62.1374
lclavicle 6.95746e-016 1.2424e-014
lhumerus -30.8606 -17.1801 94.8797
lradius 24.157
lwrist -12.4559
lhand -14.817 -26.1423
lfingers 7.12502
lthumb 11.3412 3.53104
rfemur 8.83174 -4.10814 10.1043
rtibia 7.1906
rfoot -22.0265 -4.01307
rtoes 0.776755
lfemur 8.61641 0.824664 -18.378
ltibia 6.44934
lfoot -17.5776 9.84402
ltoes -6.80676
64
root -28.1997 17.0371 1.20487 38.2579 85.3 38.0729
lowerback 6.89997 1.97723 -4.38192
upperback 0.774366 2.31212 -0.268242
thorax -3.22899 1.21345 1.95653
lowerneck -25.1602 2.16968 2.15248
upperneck 21.3628 2.74123 -1.77894
head 11.1326 1.20648 -0.546183
rclavicle -7.19973e-015 -1.47101e-014
rhumerus -31.3241 12.9581 -94.5923
rradius 24.8204
rwrist 0.964273
rhand -9.078 -32.6872
rfingers 7.12502
rthumb 16.8713 -61.9743
lclavicle -7.19973e-015 -1.47101e-014
lhumerus -30.8765 -17.4102 94.9389
lradius 24.4936
lwrist -12.0439
lhand -14.5836 -26.1771
lfingers 7.12502
lthumb 11.5664 3.48377
rfemur 8.79673 -4.10488 9.976
rtibia 7.31023
rfoot -22.2822 -4.0427
rtoes 0.78676
lfemur 8.43874 0.894042 -18.5109
ltibia 6.82138
lfoot -17.8631 9.56757
ltoes -7.4259
65
root -28.1863 17.0297 1.19846 40.0081 85.2966 39.7075
lowerback 6.77882 1.96075 -4.52747
upperback 0.821176 2.28819 -0.243533
thorax -3.11776 1.20096 2.07086
lowerneck -25.3495 2.19815 2.10785
upperneck 21.3707 2.80869 -1.83896
head 11.172 1.22313 -0.548346
rclavicle 6.52262e-015 -1.17283e-014
rhumerus -30.9278 13.534 -94.7207
rradius 24.6785
rwrist 1.24422
rhand -9.33874 -32.5951
rfingers 7.12502
rthumb 16.6203 -61.9034
lclavicle 6.52262e-015 -1.17283e-014
lhumerus -30.7995 -17.7352 95.1109
lradius 24.5381
lwrist -11.3807
lhand -14.1198 -25.943
lfingers 7.12502
lthumb 12.0136 3.69218
rfemur 8.72945 -4.20818 9.79866
rtibia 7.38847
rfoot -22.4314 -4.08224
rtoes 0.67795
lfemur 8.22779 0.864899 -18.6961
ltibia 7.09082
lfoot -18.1423 9.37445
ltoes -7.68751
66
root -28.1717 17.0221 1.19377 38.9984 85.3285 38.6798
lowerback 6.88095 1.98439 -4.54988
upperback 0.850528 2.31647 -0.139284
thorax -3.15167 1.21601 2.18567
lowerneck -25.6518 2.22111 2.07125
upperneck 21.4786 2.87846 -1.94287
head 11.2707 1.23448 -0.566613
rclavicle 2.86126e-014 -5.1684e-015
rhumerus -30.7681 14.3842 -94.9637
rradius 24.9489
rwrist 1.00466
rhand -9.65561 -32.6591
rfingers 7.12502
rthumb 16.3153 -61.9928
lclavicle 2.86126e-014 -5.1684e-015
lhumerus -30.7344 -17.4417 95.1414
lradius 24.5899
lwrist -11.2513
lhand -14.3918 -25.5384
lfingers 7.12502
lthumb 11.7513 4.112
rfemur 8.78359 -4.14539 9.89887
rtibia 7.36127
rfoot -22.5039 -4.05533
rtoes 0.698437
lfemur 8.20444 0.901754 -18.6248
ltibia 7.24971
lfoot -18.3594 9.27682
ltoes -7.78394
67
root -28.1554 17.0173 1.18839 38.0571 85.3511 37.6878
lowerback 7.10398 2.05762 -4.52669
upperback 0.762316 2.40225 -0.0778309
thorax -3.37602 1.26382 2.21814
lowerneck -25.8888 2.19244 2.0748
upperneck 21.6779 2.8791 -2.08913
head 11.3923 1.21316 -0.619303
rclavicle -2.09221e-014 2.38542e-015
rhumerus -30.8111 14.9843 -95.2085
rradius 25.3266
rwrist 0.928222
rhand -9.88219 -32.748
rfingers 7.12502
rthumb 16.0971 -62.0994
lclavicle -2.09221e-014 2.38542e-015
lhumerus -30.928 -17.1803 95.2188
lradius 24.7887
lwrist -11.0928
lhand -15.4713 -25.2152
lfingers 7.12502
lthumb 10.7101 4.4918
rfemur 8.77666 -4.06937 9.99174
rtibia 7.41188
rfoot -22.7095 -3.9617
rtoes 0.896592
lfemur 8.17086 0.796276 -18.5911
ltibia 7.36351
lfoot -18.605 9.33665
ltoes -7.52473
68
root -28.1339 17.015 1.17872 41.5822 85.0814 41.0581
lowerback 7.11254 2.14692 -4.883
upperback 0.671501 2.48565 -0.209656
thorax -3.49072 1.31314 2.26968
lowerneck -26.0188 2.13107 2.12332
upperneck 21.7844 2.79944 -2.1772
head 11.457 1.16829 -0.672768
rclavicle -1.25607e-014 8.94531e-015
rhumerus -30.7132 15.2535 -95.3544
rradius 25.6006
rwrist 1.4805
rhand -9.87258 -32.941
rfingers 7.12502
rthumb 16.1063 -62.2917
lclavicle -1.25607e-014 8.94531e-015
lhumerus -31.2084 -17.2691 95.2959
lradius 25.1529
lwrist -10.5997
lhand -16.1335 -25.0359
lfingers 7.12502
lthumb 10.0714 4.70311
rfemur 8.64036 -4.31213 9.36787
rtibia 7.57172
rfoot -22.9471 -3.6775
rtoes 0.755236
lfemur 7.9903 0.742552 -19.1396
ltibia 7.51429
lfoot -18.8995 9.36661
ltoes -7.59361
69
root -28.11 17.0146 1.16873 43.7127 84.8902 43.0508
lowerback 7.00738 2.21589 -5.06685
upperback 0.703045 2.56681 -0.358676
thorax -3.40653 1.3535 2.21383
lowerneck -26.2742 2.07822 2.24177
upperneck 21.8505 2.67957 -2.20223
head 11.5283 1.11815 -0.72097
rclavicle -1.15916e-014 3.77691e-015
rhumerus -30.3045 15.5103 -95.4881
rradius 25.7792
rwrist 2.01997
rhand -9.94038 -32.9063
rfingers 7.12502
rthumb 16.0411 -62.2623
lclavicle -1.15916e-014 3.77691e-015
lhumerus -31.4194 -17.7826 95.3615
lradius 25.7157
lwrist -9.56198
lhand -15.6465 -24.8545
lfingers 7.12502
lthumb 10.5412 4.86112
rfemur 8.53818 -4.61037 8.88145
rtibia 7.69776
rfoot -23.0661 -3.26818
rtoes 0.455314
lfemur 7.90393 0.904698 -19.4726
ltibia 7.54244
lfoot -19.1085 9.23997
ltoes -8.71663
70
root -28.0919 17.0149 1.16269 43.1486 85.0998 42.4312
lowerback 7.20574 2.23433 -4.79202
upperback 0.687002 2.59935 -0.402834
thorax -3.52235 1.36799 2.00334
lowerneck -26.5244 2.01967 2.28052
upperneck 21.9324 2.5507 -2.11065
head 11.6012 1.07327 -0.714535
rclavicle -5.2181e-015 1.48095e-014
rhumerus -29.9036 15.7109 -95.7022
rradius 25.8939
rwrist 2.36579
rhand -10.0887 -32.6836
rfingers 7.12502
rthumb 15.8982 -62.051
lclavicle -5.2181e-015 1.48095e-014
lhumerus -31.8606 -18.4837 95.51
lradius 26.4647
lwrist -8.11227
lhand -14.6778 -24.4825
lfingers 7.12502
lthumb 11.4755 5.18342
rfemur 8.58922 -4.55863 9.12232
rtibia 7.67154
rfoot -23.1948 -3.14179
rtoes 1.64459
lfemur 7.89438 1.02475 -19.2273
ltibia 7.58192
lfoot -19.2193 8.94689
ltoes -9.12625
71
root -28.0967 17.0033 1.16721 48.9028 85.6227 47.8993
lowerback 7.55033 2.06076 -4.79341
upperback 0.471659 2.34073 -0.373645
thorax -3.92223 1.25008 2.04622
lowerneck -26.4671 1.92948 2.0966
upperneck 21.7965 2.45591 -1.97285
head 11.5317 1.03376 -0.649811
rclavicle 1.3654e-014 -1.33186e-014
rhumerus -29.7763 16.091 -95.9331
rradius 26.3214
rwrist 2.37092
rhand -10.3221 -32.6531
rfingers 7.12502
rthumb 15.6734 -62.0383
lclavicle 1.3654e-014 -1.33186e-014
lhumerus -32.4839 -18.8991 95.7585
lradius 27.1863
lwrist -6.67821
lhand -14.8612 -24.0206
lfingers 7.12502
lthumb 11.2986 5.65504
rfemur 8.50436 -4.50372 9.39541
rtibia 7.52899
rfoot -23.5045 -3.67547
rtoes 2.76954
lfemur 7.20937 0.96678 -19.0294
ltibia 8.13357
lfoot -19.2501 8.15003
ltoes -6.77205
